<?xml version="1.0" encoding="UTF-8"?>
<svg width="32px" height="27px" viewBox="0 0 32 27" version="1.1" xmlns="http://www.w3.org/2000/svg" xmlns:xlink="http://www.w3.org/1999/xlink">
    <!-- Generator: Sketch 55 (78076) - https://sketchapp.com -->
    <title>Shape</title>
    <desc>Created with Sketch.</desc>
    <g id="Page-1-Copy-5" stroke="none" stroke-width="1" fill="none" fill-rule="evenodd">
        <g id="Artboard" transform="translate(-1167.000000, -71.000000)" fill="#587B9F" fill-rule="nonzero">
            <g id="bars" transform="translate(1167.000000, 71.000000)">
                <path d="M1.14285714,5 L30.8571429,5 C31.4883571,5 32,4.50256944 32,3.88888889 L32,1.11111111 C32,0.497430556 31.4883571,0 30.8571429,0 L1.14285714,0 C0.511642857,0 0,0.497430556 0,1.11111111 L0,3.88888889 C0,4.50256944 0.511642857,5 1.14285714,5 Z M1.14285714,16 L30.8571429,16 C31.4883571,16 32,15.5025694 32,14.8888889 L32,12.1111111 C32,11.4974306 31.4883571,11 30.8571429,11 L1.14285714,11 C0.511642857,11 0,11.4974306 0,12.1111111 L0,14.8888889 C0,15.5025694 0.511642857,16 1.14285714,16 Z M1.14285714,27 L30.8571429,27 C31.4883571,27 32,26.5025694 32,25.8888889 L32,23.1111111 C32,22.4974306 31.4883571,22 30.8571429,22 L1.14285714,22 C0.511642857,22 0,22.4974306 0,23.1111111 L0,25.8888889 C0,26.5025694 0.511642857,27 1.14285714,27 Z" id="Shape"></path>
            </g>
        </g>
    </g>
</svg>
