<?xml version="1.0" encoding="UTF-8"?>
<svg width="67px" height="39px" viewBox="0 0 67 39" version="1.1" xmlns="http://www.w3.org/2000/svg" xmlns:xlink="http://www.w3.org/1999/xlink">
    <!-- Generator: Sketch 54.1 (76490) - https://sketchapp.com -->
    <title>Group 14</title>
    <desc>Created with Sketch.</desc>
    <g id="Page-1-Copy-5" stroke="none" stroke-width="1" fill="none" fill-rule="evenodd">
        <g id="Artboard" transform="translate(-565.000000, -1044.000000)">
            <g id="services-blocks" transform="translate(226.000000, 1012.000000)">
                <g id="Group-14" transform="translate(339.470000, 32.370000)">
                    <g id="phone-office" transform="translate(0.000000, -0.000000)" fill="#F25C00" fill-rule="nonzero">
                        <path d="M9.03777778,29.6725 L13.5566667,29.6725 C14.8043036,29.6725 15.8161111,28.650368 15.8161111,27.39 L15.8161111,2.2825 C15.8161111,1.02213203 14.8043036,0 13.5566667,0 L9.03777778,0 C7.7901408,0 6.77833333,1.02213203 6.77833333,2.2825 L6.77833333,27.39 C6.77833333,28.650368 7.7901408,29.6725 9.03777778,29.6725 Z M37.2808333,2.2825 L18.0755556,2.2825 L18.0755556,27.39 C18.0755556,29.9071695 16.0484102,31.955 13.5566667,31.955 L9.03777778,31.955 C6.5460342,31.955 4.51888889,29.9071695 4.51888889,27.39 L4.51888889,2.2825 L3.38916667,2.2825 C1.51735816,2.2825 0,3.81534141 0,5.70625 L0,33.09625 C0,34.9871586 1.51735816,36.52 3.38916667,36.52 L37.2808333,36.52 C39.1526418,36.52 40.67,34.9871586 40.67,33.09625 L40.67,5.70625 C40.67,3.81534141 39.1526418,2.2825 37.2808333,2.2825 Z M27.1133333,30.81375 C27.1133333,31.4442906 26.6077826,31.955 25.9836111,31.955 L23.7241667,31.955 C23.0999951,31.955 22.5944444,31.4442906 22.5944444,30.81375 L22.5944444,28.53125 C22.5944444,27.9007094 23.0999951,27.39 23.7241667,27.39 L25.9836111,27.39 C26.6077826,27.39 27.1133333,27.9007094 27.1133333,28.53125 L27.1133333,30.81375 Z M27.1133333,21.68375 C27.1133333,22.3142906 26.6077826,22.825 25.9836111,22.825 L23.7241667,22.825 C23.0999951,22.825 22.5944444,22.3142906 22.5944444,21.68375 L22.5944444,19.40125 C22.5944444,18.7707094 23.0999951,18.26 23.7241667,18.26 L25.9836111,18.26 C26.6077826,18.26 27.1133333,18.7707094 27.1133333,19.40125 L27.1133333,21.68375 Z M36.1511111,30.81375 C36.1511111,31.4442906 35.6455604,31.955 35.0213889,31.955 L32.7619444,31.955 C32.1377729,31.955 31.6322222,31.4442906 31.6322222,30.81375 L31.6322222,28.53125 C31.6322222,27.9007094 32.1377729,27.39 32.7619444,27.39 L35.0213889,27.39 C35.6455604,27.39 36.1511111,27.9007094 36.1511111,28.53125 L36.1511111,30.81375 Z M36.1511111,21.68375 C36.1511111,22.3142906 35.6455604,22.825 35.0213889,22.825 L32.7619444,22.825 C32.1377729,22.825 31.6322222,22.3142906 31.6322222,21.68375 L31.6322222,19.40125 C31.6322222,18.7707094 32.1377729,18.26 32.7619444,18.26 L35.0213889,18.26 C35.6455604,18.26 36.1511111,18.7707094 36.1511111,19.40125 L36.1511111,21.68375 Z M36.1511111,13.695 L22.5944444,13.695 L22.5944444,6.8475 L36.1511111,6.8475 L36.1511111,13.695 Z" id="Shape"></path>
                    </g>
                    <g id="ic-local-post-office-24px" transform="translate(43.160000, 18.260000)">
                        <path d="M20.418,4.15 L4.482,4.15 C3.3864,4.15 2.49996,5.0370625 2.49996,6.12125 L2.49,17.94875 C2.49,19.0329375 3.3864,19.92 4.482,19.92 L20.418,19.92 C21.5136,19.92 22.41,19.0329375 22.41,17.94875 L22.41,6.12125 C22.41,5.0370625 21.5136,4.15 20.418,4.15 Z M20.418,8.0925 L12.45,13.020625 L4.482,8.0925 L4.482,6.12125 L12.45,11.049375 L20.418,6.12125 L20.418,8.0925 Z" id="Shape" fill="#F25C00" fill-rule="nonzero"></path>
                        <polygon id="Path" points="0 0 24.07 0 24.07 24.07 0 24.07"></polygon>
                    </g>
                </g>
            </g>
        </g>
    </g>
</svg>
