<?xml version="1.0" encoding="UTF-8"?>
<svg width="43px" height="53px" viewBox="0 0 43 53" version="1.1" xmlns="http://www.w3.org/2000/svg" xmlns:xlink="http://www.w3.org/1999/xlink">
    <!-- Generator: Sketch 54.1 (76490) - https://sketchapp.com -->
    <title>Shape</title>
    <desc>Created with Sketch.</desc>
    <g id="Page-1-Copy-5" stroke="none" stroke-width="1" fill="none" fill-rule="evenodd">
        <g id="Artboard" transform="translate(-268.000000, -1033.000000)" fill="#A4CF00" fill-rule="nonzero">
            <g id="services-blocks" transform="translate(226.000000, 1012.000000)">
                <g id="ic-local-laundry-service-48px" transform="translate(32.370000, 16.600000)">
                    <path d="M23.7846875,43.6528125 C27.8309375,47.6990625 34.4060938,47.6990625 38.4523438,43.6528125 C42.4985938,39.6065625 42.4985938,33.0314063 38.4523438,28.9851563 L23.7846875,43.6528125 Z M46.6875,5.2134375 L15.5625,5.1875 C12.6964063,5.1875 10.375,7.50890625 10.375,10.375 L10.375,51.875 C10.375,54.7410937 12.6964063,57.0625 15.5625,57.0625 L46.6875,57.0625 C49.5535938,57.0625 51.875,54.7410937 51.875,51.875 L51.875,10.375 C51.875,7.50890625 49.5535938,5.2134375 46.6875,5.2134375 Z M25.9375,10.375 C27.3640625,10.375 28.53125,11.5421875 28.53125,12.96875 C28.53125,14.3953125 27.3640625,15.5625 25.9375,15.5625 C24.5109375,15.5625 23.34375,14.3953125 23.34375,12.96875 C23.34375,11.5421875 24.5109375,10.375 25.9375,10.375 Z M18.15625,10.375 C19.5828125,10.375 20.75,11.5421875 20.75,12.96875 C20.75,14.3953125 19.5828125,15.5625 18.15625,15.5625 C16.7296875,15.5625 15.5625,14.3953125 15.5625,12.96875 C15.5625,11.5421875 16.7296875,10.375 18.15625,10.375 Z M31.125,51.875 C22.5267188,51.875 15.5625,44.9107813 15.5625,36.3125 C15.5625,27.7142188 22.5267188,20.75 31.125,20.75 C39.7232813,20.75 46.6875,27.7142188 46.6875,36.3125 C46.6875,44.9107813 39.7232813,51.875 31.125,51.875 Z" id="Shape"></path>
                </g>
            </g>
        </g>
    </g>
</svg>
