<?xml version="1.0" encoding="UTF-8"?>
<svg width="31px" height="25px" viewBox="0 0 31 25" version="1.1" xmlns="http://www.w3.org/2000/svg" xmlns:xlink="http://www.w3.org/1999/xlink">
    <!-- Generator: Sketch 54.1 (76490) - https://sketchapp.com -->
    <title>Path</title>
    <desc>Created with Sketch.</desc>
    <g id="Page-1-Copy-5" stroke="none" stroke-width="1" fill="none" fill-rule="evenodd">
        <g id="Artboard" transform="translate(-268.000000, -2752.000000)" fill="#FFFFFF" fill-rule="nonzero">
            <g id="Group-13" transform="translate(226.000000, 2713.000000)">
                <g id="twitter" transform="translate(42.000000, 39.000000)">
                    <path d="M27.8135266,6.23044606 C27.8332044,6.50387051 27.8332044,6.77735507 27.8332044,7.05077951 C27.8332044,15.3905857 21.4404588,25 9.75637991,25 C6.15673303,25 2.81283716,23.9647987 0,22.1680009 C0.511441451,22.2265575 1.00314454,22.2460964 1.53426381,22.2460964 C4.50440236,22.2460964 7.23858882,21.2500331 9.42197821,19.5508096 C6.62881886,19.4921929 4.28806753,17.675796 3.48158001,15.175778 C3.87501514,15.2343346 4.26838972,15.2734124 4.68150266,15.2734124 C5.251917,15.2734124 5.82239188,15.1952568 6.3534506,15.0586047 C3.44228493,14.4726179 1.258835,11.9335821 1.258835,8.86717632 L1.258835,8.78908082 C2.1046176,9.2578342 3.08820542,9.55079755 4.13064504,9.58981524 C2.41934148,8.45697954 1.29819062,6.52340941 1.29819062,4.33589363 C1.29819062,3.16404024 1.61285396,2.08982125 2.16365103,1.15231449 C5.29121208,4.98043705 9.99239255,7.48039496 15.2639268,7.75387952 C15.1655983,7.28512614 15.1065649,6.79689398 15.1065649,6.30860169 C15.1065649,2.83199908 17.9390798,0 21.4600155,0 C23.2893253,0 24.9415955,0.76171673 26.1021625,1.99218684 C27.5380373,1.7187624 28.9149391,1.1913923 30.1345396,0.468753382 C29.6623932,1.93363024 28.6592487,3.16410036 27.3413802,3.94529587 C28.6199536,3.80864377 29.8591713,3.45700359 31,2.96877142 C30.1346607,4.21872032 29.0527443,5.33195699 27.8135266,6.23044606 Z" id="Path"></path>
                </g>
            </g>
        </g>
    </g>
</svg>
