<?xml version="1.0" encoding="UTF-8"?>
<svg width="62px" height="44px" viewBox="0 0 62 44" version="1.1" xmlns="http://www.w3.org/2000/svg" xmlns:xlink="http://www.w3.org/1999/xlink">
    <!-- Generator: Sketch 54.1 (76490) - https://sketchapp.com -->
    <title>Shape</title>
    <desc>Created with Sketch.</desc>
    <g id="Page-1-Copy-5" stroke="none" stroke-width="1" fill="none" fill-rule="evenodd">
        <g id="Artboard" transform="translate(-876.000000, -1039.000000)" fill="#FFD052" fill-rule="nonzero">
            <g id="services-blocks" transform="translate(226.000000, 1012.000000)">
                <g id="engine-warning" transform="translate(650.720000, 27.000000)">
                    <path d="M4.54425,21.58 C4.54425,15.8449223 6.39508516,10.2716946 9.785285,5.73122411 C10.2756853,5.07515357 10.209415,4.15993036 9.59310109,3.62524732 L8.43810422,2.62235536 C7.78392156,2.05395357 6.76998578,2.13487857 6.24645031,2.82948482 C2.20774812,8.19076607 0,14.7880804 0,21.58 C0,28.3690295 2.20774812,34.9673071 6.24455687,40.3295518 C6.76809234,41.024158 7.78108141,41.105083 8.43621078,40.5376446 L9.59026094,39.5357161 C10.2065748,39.001033 10.2728452,38.0867732 9.78339156,37.4297393 C6.39508516,32.887342 4.54425,27.3150777 4.54425,21.58 Z M30.295,0 C18.5840891,0 9.0885,9.66283036 9.0885,21.58 C9.0885,33.50295 18.5840891,43.16 30.295,43.16 C42.0059109,43.16 51.5015,33.50295 51.5015,21.58 C51.5015,9.66283036 42.0059109,0 30.295,0 Z M30.295,33.9114286 C28.622148,33.9114286 27.2655,32.5308866 27.2655,30.8285714 C27.2655,29.1262562 28.622148,27.7457143 30.295,27.7457143 C31.967852,27.7457143 33.3245,29.1262562 33.3245,30.8285714 C33.3245,32.5308866 31.967852,33.9114286 30.295,33.9114286 Z M32.7034525,23.274608 C32.6258216,24.0626634 31.9744791,24.6628571 31.1962762,24.6628571 L29.3937237,24.6628571 C28.6155209,24.6628571 27.9641784,24.0626634 27.8865475,23.274608 L26.6747475,10.9431795 C26.5857559,10.0356634 27.2853811,9.24857143 28.1819237,9.24857143 L32.4080762,9.24857143 C33.3046189,9.24857143 34.0042441,10.0356634 33.9152525,10.9431795 L32.7034525,23.274608 L32.7034525,23.274608 Z M54.221423,2.66956161 C53.6931539,1.97784554 52.6792181,1.90366429 52.0278756,2.47688304 L50.8776123,3.48940893 C50.2650853,4.02890893 50.205442,4.94316875 50.6996292,5.59634911 C54.1560994,10.1609045 56.04575,15.7813384 56.04575,21.58 C56.04575,27.3825152 54.1560994,33.0029491 50.7005759,37.5675045 C50.2063887,38.2206848 50.266032,39.1349446 50.8785591,39.6744446 L52.0288223,40.6860071 C52.6792181,41.2592259 53.6941006,41.1850446 54.2223697,40.4933286 C58.3377561,35.1041089 60.59,28.4499545 60.59,21.58 C60.59,14.7138991 58.3377561,8.05974464 54.221423,2.66956161 Z" id="Shape"></path>
                </g>
            </g>
        </g>
    </g>
</svg>
