<?xml version="1.0" encoding="UTF-8"?>
<svg width="35px" height="31px" viewBox="0 0 35 31" version="1.1" xmlns="http://www.w3.org/2000/svg" xmlns:xlink="http://www.w3.org/1999/xlink">
    <!-- Generator: Sketch 54.1 (76490) - https://sketchapp.com -->
    <title>mail-bulk</title>
    <desc>Created with Sketch.</desc>
    <g id="Page-1-Copy-5" stroke="none" stroke-width="1" fill="none" fill-rule="evenodd">
        <g id="Artboard" transform="translate(-314.000000, -2749.000000)" fill="#FFFFFF" fill-rule="nonzero">
            <g id="Group-13" transform="translate(226.000000, 2713.000000)">
                <g id="mail-bulk" transform="translate(88.000000, 36.000000)">
                    <path d="M9.72222222,27.125 C8.16666667,27.125 6.61111111,25.76875 5.83333333,25.1875 C1.94444444,22.475 0.777777778,21.50625 0,20.925 L0,29.0625 C0,30.1323633 0.870746528,31 1.94444444,31 L17.5,31 C18.5736979,31 19.4444444,30.1323633 19.4444444,29.0625 L19.4444444,20.925 C18.6666667,21.50625 17.5,22.475 13.6111111,25.1875 C12.8333333,25.76875 11.2777778,27.125 9.72222222,27.125 Z M17.5,15.5 L1.94444444,15.5 C0.870746528,15.5 0,16.3676367 0,17.4375 L0,18.40625 C1.55555556,19.56875 1.36111111,19.56875 7,23.6375 C7.58333333,24.025 8.75,25.1875 9.72222222,25.1875 C10.6944444,25.1875 11.8611111,24.025 12.4444444,23.83125 C18.0833333,19.7625 17.8888889,19.7625 19.4444444,18.6 L19.4444444,17.4375 C19.4444444,16.3676367 18.5736979,15.5 17.5,15.5 Z M33.0555556,9.6875 L13.6111111,9.6875 C12.5374132,9.6875 11.6666667,10.5551367 11.6666667,11.625 L11.6666667,13.5625 L17.5,13.5625 C19.5179688,13.5625 21.181684,15.1016016 21.3712674,17.0633203 L21.3888889,17.05 L21.3888889,25.1875 L33.0555556,25.1875 C34.1292535,25.1875 35,24.3198633 35,23.25 L35,11.625 C35,10.5551367 34.1292535,9.6875 33.0555556,9.6875 Z M31.1111111,17.4375 L27.2222222,17.4375 L27.2222222,13.5625 L31.1111111,13.5625 L31.1111111,17.4375 Z M9.72222222,11.625 C9.72222222,9.48830078 11.4667535,7.75 13.6111111,7.75 L27.2222222,7.75 L27.2222222,1.9375 C27.2222222,0.867636719 26.3514757,0 25.2777778,0 L5.83333333,0 C4.75963542,0 3.88888889,0.867636719 3.88888889,1.9375 L3.88888889,13.5625 L9.72222222,13.5625 L9.72222222,11.625 Z" id="Shape"></path>
                </g>
            </g>
        </g>
    </g>
</svg>
