<?xml version="1.0" encoding="UTF-8"?>
<svg width="29px" height="29px" viewBox="0 0 29 29" version="1.1" xmlns="http://www.w3.org/2000/svg" xmlns:xlink="http://www.w3.org/1999/xlink">
    <!-- Generator: Sketch 54.1 (76490) - https://sketchapp.com -->
    <title>Path</title>
    <desc>Created with Sketch.</desc>
    <g id="Page-1-Copy-5" stroke="none" stroke-width="1" fill="none" fill-rule="evenodd">
        <g id="Artboard" transform="translate(-366.000000, -2751.000000)" fill="#FFFFFF" fill-rule="nonzero">
            <g id="Group-13" transform="translate(226.000000, 2713.000000)">
                <g id="phone" transform="translate(140.000000, 38.000000)">
                    <path d="M27.9465058,1.39394244 L22.0560006,0.0345961472 C21.4159746,-0.112666367 20.7589567,0.221506262 20.4984151,0.821884207 L17.7797204,7.16550022 C17.5418347,7.72056663 17.7004252,8.37192006 18.1705328,8.75140423 L21.6028849,11.5607199 C19.5638638,15.9049641 16.001241,19.5185596 11.5663703,21.5972267 L8.75705243,18.1648773 C8.37190402,17.69477 7.72621403,17.5361796 7.1711472,17.7740652 L0.827526248,20.4927578 C0.221483889,20.7589631 -0.112689,21.4159805 0.0345736288,22.056006 L1.39392098,27.9465066 C1.53551966,28.5582125 2.0792586,29 2.71928464,29 C17.2246536,29 29,17.2473185 29,2.71930507 C29,2.08494347 28.5638761,1.53554101 27.9465058,1.39394244 Z" id="Path"></path>
                </g>
            </g>
        </g>
    </g>
</svg>
