<?xml version="1.0" encoding="UTF-8"?>
<svg width="63px" height="56px" viewBox="0 0 63 56" version="1.1" xmlns="http://www.w3.org/2000/svg" xmlns:xlink="http://www.w3.org/1999/xlink">
    <!-- Generator: Sketch 54.1 (76490) - https://sketchapp.com -->
    <title>Shape</title>
    <desc>Created with Sketch.</desc>
    <g id="Page-1-Copy-5" stroke="none" stroke-width="1" fill="none" fill-rule="evenodd">
        <g id="Artboard" transform="translate(-1028.000000, -1036.000000)" fill="#8196AF" fill-rule="nonzero">
            <g id="services-blocks" transform="translate(226.000000, 1012.000000)">
                <g id="hand-holding-heart" transform="translate(802.000000, 24.000000)">
                    <path d="M29.7508305,27.2088224 C30.5072992,28.0125269 31.7392624,28.0125269 32.5065377,27.2088224 L44.2750282,14.8057077 C47.6899438,11.1998986 47.4954233,5.22641955 43.6698533,1.90299303 C40.3413914,-0.996859523 35.3811185,-0.475537716 32.3336306,2.73928009 L31.1232808,4.010002 L29.9237377,2.75014096 C26.8762498,-0.475537716 21.9159769,-0.996859523 18.5875149,1.90299303 C14.7727517,5.22641955 14.5674245,11.1998986 17.98234,14.8057077 L29.7508305,27.2088224 Z M61.0902452,35.6368583 C59.8150552,34.4747451 57.8266234,34.5507712 56.4865933,35.6368583 L46.5012074,43.6630419 C45.2800509,44.6513812 43.7563069,45.1835639 42.1785295,45.1835639 L29.3942096,45.1835639 C28.4432205,45.1835639 27.6651385,44.4015812 27.6651385,43.4458245 C27.6651385,42.4900679 28.4432205,41.7080852 29.3942096,41.7080852 L37.8558516,41.7080852 C39.574116,41.7080852 41.1735069,40.5242502 41.4544809,38.8190935 C41.8111018,36.6469193 40.1468709,34.7571277 38.0395654,34.7571277 L20.7488539,34.7571277 C17.8310463,34.7571277 15.010499,35.7671887 12.7410931,37.6135368 L7.71598003,41.7080852 L1.72907115,41.7080852 C0.778082019,41.7080852 0,42.4900679 0,43.4458245 L0,53.8722606 C0,54.8280173 0.778082019,55.61 1.72907115,55.61 L40.2873579,55.61 C41.8543286,55.61 43.3780726,55.0778173 44.6100358,54.0894781 L60.9497582,40.9478242 C62.5923758,39.6336588 62.7220561,37.1139367 61.0902452,35.6368583 Z" id="Shape"></path>
                </g>
            </g>
        </g>
    </g>
</svg>
