<?xml version="1.0" encoding="UTF-8"?>
<svg width="22px" height="22px" viewBox="0 0 22 22" version="1.1" xmlns="http://www.w3.org/2000/svg" xmlns:xlink="http://www.w3.org/1999/xlink">
    <!-- Generator: Sketch 54.1 (76490) - https://sketchapp.com -->
    <title>Shape</title>
    <desc>Created with Sketch.</desc>
    <g id="Page-1-Copy-5" stroke="none" stroke-width="1" fill="none" fill-rule="evenodd">
        <g id="Artboard" transform="translate(-252.000000, -1930.000000)" fill="#000000" fill-rule="nonzero">
            <g id="clock" transform="translate(252.000000, 1930.000000)">
                <path d="M11,0 C4.9233871,0 0,4.9233871 0,11 C0,17.0766129 4.9233871,22 11,22 C17.0766129,22 22,17.0766129 22,11 C22,4.9233871 17.0766129,0 11,0 Z M13.5326613,15.528629 L9.62056452,12.6854839 C9.48306452,12.5834677 9.40322581,12.4237903 9.40322581,12.2552419 L9.40322581,4.79032258 C9.40322581,4.49758065 9.64274194,4.25806452 9.93548387,4.25806452 L12.0645161,4.25806452 C12.3572581,4.25806452 12.5967742,4.49758065 12.5967742,4.79032258 L12.5967742,10.8979839 L15.4133065,12.9471774 C15.6528226,13.1201613 15.7016129,13.4528226 15.528629,13.6923387 L14.2778226,15.4133065 C14.1048387,15.6483871 13.7721774,15.7016129 13.5326613,15.528629 Z" id="Shape"></path>
            </g>
        </g>
    </g>
</svg>
