<?xml version="1.0" encoding="UTF-8"?>
<svg width="65px" height="65px" viewBox="0 0 65 65" version="1.1" xmlns="http://www.w3.org/2000/svg" xmlns:xlink="http://www.w3.org/1999/xlink">
    <!-- Generator: Sketch 54.1 (76490) - https://sketchapp.com -->
    <title>Shape</title>
    <desc>Created with Sketch.</desc>
    <g id="Page-1-Copy-5" stroke="none" stroke-width="1" fill="none" fill-rule="evenodd">
        <g id="Artboard" transform="translate(-252.000000, -1231.000000)" fill="#676767" fill-rule="nonzero">
            <g id="Group-2" transform="translate(226.000000, 1208.000000)">
                <g id="info-circle" transform="translate(58.500000, 55.500000) scale(-1, 1) translate(-58.500000, -55.500000) translate(26.000000, 23.000000)">
                    <path d="M32.9513889,4.51388889 C48.5684476,4.51388889 61.3888889,17.1626519 61.3888889,32.9513889 C61.3888889,48.6566565 48.6696904,61.3888889 32.9513889,61.3888889 C17.252309,61.3888889 4.51388889,48.6760098 4.51388889,32.9513889 C4.51388889,17.2577069 17.2320341,4.51388889 32.9513889,4.51388889 L32.9513889,4.51388889 Z M32.5,0 C14.552006,0 0,14.557248 0,32.5 C0,50.4532359 14.552006,65 32.5,65 C50.447994,65 65,50.4532359 65,32.5 C65,14.557248 50.447994,0 32.5,0 Z M27.7604167,45.4136473 L29.3402778,45.4136473 L29.3402778,29.5169082 L27.7604167,29.5169082 C26.8879384,29.5169082 26.1805556,28.8051317 26.1805556,27.9272343 L26.1805556,26.8674517 C26.1805556,25.9895543 26.8879384,25.2777778 27.7604167,25.2777778 L34.0798611,25.2777778 C34.9523394,25.2777778 35.6597222,25.9895543 35.6597222,26.8674517 L35.6597222,45.4136473 L37.2395833,45.4136473 C38.1120616,45.4136473 38.8194444,46.1254238 38.8194444,47.0033213 L38.8194444,48.0631039 C38.8194444,48.9410013 38.1120616,49.6527778 37.2395833,49.6527778 L27.7604167,49.6527778 C26.8879384,49.6527778 26.1805556,48.9410013 26.1805556,48.0631039 L26.1805556,47.0033213 C26.1805556,46.1254238 26.8879384,45.4136473 27.7604167,45.4136473 Z M32.9513889,13.5416667 C30.7077463,13.5416667 28.8888889,15.3605241 28.8888889,17.6041667 C28.8888889,19.8478092 30.7077463,21.6666667 32.9513889,21.6666667 C35.1950315,21.6666667 37.0138889,19.8478092 37.0138889,17.6041667 C37.0138889,15.3605241 35.1950315,13.5416667 32.9513889,13.5416667 Z" id="Shape" transform="translate(32.500000, 32.500000) scale(-1, 1) translate(-32.500000, -32.500000) "></path>
                </g>
            </g>
        </g>
    </g>
</svg>
