<?xml version="1.0" encoding="UTF-8"?>
<svg width="63px" height="50px" viewBox="0 0 63 50" version="1.1" xmlns="http://www.w3.org/2000/svg" xmlns:xlink="http://www.w3.org/1999/xlink">
    <!-- Generator: Sketch 54.1 (76490) - https://sketchapp.com -->
    <title>Shape</title>
    <desc>Created with Sketch.</desc>
    <g id="Page-1-Copy-5" stroke="none" stroke-width="1" fill="none" fill-rule="evenodd">
        <g id="Artboard" transform="translate(-414.000000, -1033.000000)" fill="#2BAEFF" fill-rule="nonzero">
            <g id="services-blocks" transform="translate(226.000000, 1012.000000)">
                <g id="home" transform="translate(188.410000, 21.580000)">
                    <path d="M52.7385774,30.6684676 L52.7385774,46.344556 C52.7385774,47.7994896 51.5820788,48.97 50.1445617,48.97 L37.6068192,48.97 C36.8934649,48.97 36.3098113,48.3792751 36.3098113,47.657278 L36.3098113,35.4052061 C36.3098113,34.683209 35.7261578,34.0924841 35.0128035,34.0924841 L27.2307564,34.0924841 C26.5174021,34.0924841 25.9337486,34.683209 25.9337486,35.4052061 L25.9337486,47.657278 C25.9337486,48.3792751 25.350095,48.97 24.6367407,48.97 L12.0989982,48.97 C10.6614811,48.97 9.50498248,47.7994896 9.50498248,46.344556 L9.50498248,30.6684676 C9.50498248,30.274651 9.67791686,29.9027131 9.98055203,29.651108 L30.3003417,12.7169943 C30.7759112,12.3231777 31.4676487,12.3231777 31.9540267,12.7169943 L52.2738163,29.651108 C52.565643,29.9027131 52.7385774,30.274651 52.7385774,30.6684676 Z M61.7743988,24.0064034 L52.7385774,16.4691913 L52.7385774,1.31819167 C52.7385774,0.596194572 52.1549239,0.00546967497 51.4415696,0.00546967497 L45.3888663,0.00546967497 C44.675512,0.00546967497 44.0918584,0.596194572 44.0918584,1.31819167 L44.0918584,9.26015972 L34.4183416,1.19785882 C32.505255,-0.399286273 29.7383049,-0.399286273 27.8252183,1.19785882 L0.469161139,24.0064034 C-0.0820671963,24.4658561 -0.157725987,25.2972467 0.296226759,25.8551536 L3.05236844,29.2463521 C3.50632118,29.8042589 4.32775949,29.8808344 4.87898782,29.4213817 L30.3003417,8.23186083 C30.7759112,7.83804423 31.4676487,7.83804423 31.9540267,8.23186083 L57.3753805,29.4213817 C57.9266088,29.8808344 58.7480471,29.8042589 59.2019999,29.2463521 L61.9581415,25.8551536 C62.4120943,25.2863074 62.3256271,24.4658561 61.7743988,24.0064034 L61.7743988,24.0064034 Z" id="Shape"></path>
                </g>
            </g>
        </g>
    </g>
</svg>
