<?xml version="1.0" encoding="UTF-8"?>
<svg width="66px" height="42px" viewBox="0 0 66 42" version="1.1" xmlns="http://www.w3.org/2000/svg" xmlns:xlink="http://www.w3.org/1999/xlink">
    <!-- Generator: Sketch 54.1 (76490) - https://sketchapp.com -->
    <title>Shape</title>
    <desc>Created with Sketch.</desc>
    <g id="Page-1-Copy-5" stroke="none" stroke-width="1" fill="none" fill-rule="evenodd">
        <g id="Artboard" transform="translate(-720.000000, -1045.000000)" fill="#9B6FD2" fill-rule="nonzero">
            <g id="services-blocks" transform="translate(226.000000, 1012.000000)">
                <g id="ic-people-outline-48px" transform="translate(494.000000, 33.000000)">
                    <path d="M46.5,24 C42.885,24 37.275,25.005 33,27.015 C28.725,25.005 23.115,24 19.5,24 C13.005,24 0,27.255 0,33.75 L0,42 L66,42 L66,33.75 C66,27.255 52.995,24 46.5,24 Z M34.5,37.5 L4.5,37.5 L4.5,33.75 C4.5,32.145 12.18,28.5 19.5,28.5 C26.82,28.5 34.5,32.145 34.5,33.75 L34.5,37.5 Z M61.5,37.5 L39,37.5 L39,33.75 C39,32.385 38.4,31.17 37.44,30.09 C40.095,29.19 43.335,28.5 46.5,28.5 C53.82,28.5 61.5,32.145 61.5,33.75 L61.5,37.5 Z M19.5,21 C25.305,21 30,16.29 30,10.5 C30,4.71 25.305,0 19.5,0 C13.71,0 9,4.71 9,10.5 C9,16.29 13.71,21 19.5,21 Z M19.5,4.5 C22.815,4.5 25.5,7.185 25.5,10.5 C25.5,13.815 22.815,16.5 19.5,16.5 C16.185,16.5 13.5,13.815 13.5,10.5 C13.5,7.185 16.185,4.5 19.5,4.5 Z M46.5,21 C52.305,21 57,16.29 57,10.5 C57,4.71 52.305,0 46.5,0 C40.71,0 36,4.71 36,10.5 C36,16.29 40.71,21 46.5,21 Z M46.5,4.5 C49.815,4.5 52.5,7.185 52.5,10.5 C52.5,13.815 49.815,16.5 46.5,16.5 C43.185,16.5 40.5,13.815 40.5,10.5 C40.5,7.185 43.185,4.5 46.5,4.5 Z" id="Shape"></path>
                </g>
            </g>
        </g>
    </g>
</svg>
