<?xml version="1.0" encoding="UTF-8"?>
<svg width="22px" height="22px" viewBox="0 0 22 22" version="1.1" xmlns="http://www.w3.org/2000/svg" xmlns:xlink="http://www.w3.org/1999/xlink">
    <!-- Generator: Sketch 54.1 (76490) - https://sketchapp.com -->
    <title>Path</title>
    <desc>Created with Sketch.</desc>
    <g id="Page-1-Copy-5" stroke="none" stroke-width="1" fill="none" fill-rule="evenodd">
        <g id="Artboard" transform="translate(-252.000000, -2036.000000)" fill="#000000" fill-rule="nonzero">
            <g id="Group-4" transform="translate(222.000000, 1503.000000)">
                <g id="phone" transform="translate(30.000000, 533.000000)">
                    <path d="M21.2007975,1.05747357 L16.7321384,0.0262453531 C16.2466014,-0.0854710374 15.7481741,0.168039233 15.5505218,0.623498364 L13.4880638,5.43589672 C13.3075987,5.85698158 13.4279088,6.35111177 13.7845421,6.63899631 L16.3883954,8.7702013 C14.8415519,12.0658348 12.1388725,14.8071832 8.7744878,16.384103 L6.64328116,13.7802517 C6.3510996,13.4236186 5.86126582,13.3033087 5.44018063,13.4837736 L0.627778533,15.5462301 C0.168022261,15.7481789 -0.0854882072,16.2466059 0.0262282701,16.7321425 L1.05745729,21.2007981 C1.16487698,21.6648508 1.57736859,22 2.06290559,22 C13.0669786,22 22,13.0841727 22,2.06292109 C22,1.58168125 21.6691474,1.16489318 21.2007975,1.05747357 Z" id="Path"></path>
                </g>
            </g>
        </g>
    </g>
</svg>
